<svg xmlns="http://www.w3.org/2000/svg" xmlns:xlink="http://www.w3.org/1999/xlink" version="1.1" x="0px" y="0px" viewBox="0 0 66 82.5" enable-background="new 0 0 66 66" xml:space="preserve"><g><g><path d="M8.8,24.6c3.2,0,5.7-2.6,5.7-5.7c0-3.2-2.6-5.7-5.7-5.7c-3.2,0-5.7,2.6-5.7,5.7C3.1,22,5.7,24.6,8.8,24.6z M8.8,15.1    c2.1,0,3.7,1.7,3.7,3.7c0,2.1-1.7,3.7-3.7,3.7c-2.1,0-3.7-1.7-3.7-3.7C5.1,16.8,6.8,15.1,8.8,15.1z" fill="#ffffff"/></g><g><path d="M26.9,35.8h-6.7l-4-8.2c0,0,0-0.1-0.1-0.1c-0.6-0.9-1.6-1.4-2.6-1.4H5c-2.2,0-4,1.8-4,4v31.4c0,1.8,1.3,3.3,3,3.5    c2,0.2,3.7-1.4,3.7-3.3V48.9c0-0.6,0.4-1.2,1-1.2c0.3,0,0.6,0.1,0.9,0.3c0.2,0.2,0.4,0.5,0.4,0.8v12.8c0,1.9,1.5,3.5,3.3,3.5    c1.8,0,3.4-1.5,3.4-3.4v-20c0.5,0.4,1.2,0.6,1.8,0.6H27c1.9,0,3.4-1.6,3.2-3.5C30,37.1,28.6,35.8,26.9,35.8z M27,40.2h-8.6    c-0.4,0-0.7-0.2-1-0.5l-1-1.4c-0.3-0.3-0.7-0.5-1.1-0.4c-0.4,0.1-0.7,0.5-0.7,1v22.8c0,0.8-0.7,1.4-1.5,1.3    c-0.7-0.1-1.2-0.7-1.2-1.5V48.7c0-0.9-0.4-1.7-1-2.3c-0.6-0.5-1.3-0.8-2.1-0.8c-0.1,0-0.2,0-0.3,0c-1.6,0.2-2.8,1.6-2.8,3.2v12.8    c0,0.8-0.7,1.4-1.5,1.3C3.5,62.9,3,62.3,3,61.5V30.1c0-1.1,0.9-2,2-2h8.6c0.3,0,0.7,0.1,0.9,0.4l4.2,8.7c0.2,0.3,0.5,0.6,0.9,0.6    h7.3c0.7,0,1.3,0.5,1.3,1.1C28.3,39.6,27.7,40.2,27,40.2z" fill="#ffffff"/></g><g><path d="M64.2,5.6L45.7,1c-0.3-0.1-0.6,0-0.9,0.2c-0.2,0.2-0.4,0.5-0.4,0.8v2.3h-9.3c-0.6,0-1,0.4-1,1v11c-4.1,0-7.4,0-11.4,0    c-1.1,0-2,0.9-2,2v14.1c0,1.1,0.9,2,2,2c0.2,0,12.1,0,11.4,0v19c0,0.6,0.4,1,1,1h9.3v2.3c0,0.3,0.1,0.6,0.4,0.8    c0.2,0.1,0.4,0.2,0.6,0.2c0.1,0,0.2,0,0.2,0l18.5-4.6c0.4-0.1,0.8-0.5,0.8-1V6.6C65,6.1,64.7,5.7,64.2,5.6z M32.2,18.2v2.6h-2.7    v-2.6H32.2z M22.8,18.2h4.7v3.6c0,0.6,0.4,1,1,1h4.7c0.6,0,1-0.4,1-1v-3.6h4.4l0,14.1h-4.4v-3.6c0-0.6-0.4-1-1-1h-4.7    c-0.6,0-1,0.4-1,1v3.6h-4.7V18.2z M29.5,32.3v-2.6h2.7v2.6H29.5z M44.5,52.3h-8.3v-18h2.4c1.1,0,2-0.9,2-2V18.2c0-1.1-0.9-2-2-2    h-2.4v-10h8.3V52.3z M63,51.2l-16.5,4.1v-52L63,7.4V51.2z" fill="#bcdbdf"/></g><g><path d="M50.5,31.3c0.6,0,1-0.4,1-1v-1.9c0-0.6-0.4-1-1-1c-0.6,0-1,0.4-1,1v1.9C49.5,30.8,50,31.3,50.5,31.3z" fill="#bcdbdf"/></g></g><text x="0" y="81" fill="#000000" font-size="5px" font-weight="bold" font-family="'Helvetica Neue', Helvetica, Arial-Unicode, Arial, Sans-serif">Created by ProSymbols</text><text x="0" y="86" fill="#000000" font-size="5px" font-weight="bold" font-family="'Helvetica Neue', Helvetica, Arial-Unicode, Arial, Sans-serif">from the Noun Project</text></svg>