<svg xmlns="http://www.w3.org/2000/svg" viewBox="0 0 100 125" x="0px" y="0px"><title>•SET8-v2</title><path d="M58.23,73h-13V64.28H36.51v-13h8.73V42.57h13V51.3H67v13H58.23Zm-9.59-3.4h6.19V60.88h8.73V54.7H54.83V46H48.64V54.7H39.91v6.18h8.73Z" fill="#bcdbdf"/><path d="M86.94,26.72h-.58V20.86a3.6,3.6,0,0,0-3.6-3.6H76V10.67A2.67,2.67,0,0,0,74.9,8.51a2.63,2.63,0,0,0-2.4-.35l-26.7,9.1H19.88A10.84,10.84,0,0,0,9.05,28.09v8.46h0c0,.33,0,.66,0,1v39.1A10.84,10.84,0,0,0,19.88,87.48H86.94a3.6,3.6,0,0,0,3.6-3.6V30.31A3.6,3.6,0,0,0,86.94,26.72Zm-4.18-6.06a.2.2,0,0,1,.2.2v5.86H76V20.66ZM72.61,11.71v15h-44Zm-52.73,9h16L16.08,27.39v0a10.93,10.93,0,0,0-3.64,2.28v-1.6A7.44,7.44,0,0,1,19.88,20.66ZM87.14,83.88a.2.2,0,0,1-.2.2H19.88a7.44,7.44,0,0,1-7.43-7.43V37.55a7.44,7.44,0,0,1,7.43-7.43H86.94a.2.2,0,0,1,.2.19Z" fill="#ffffff"/>
<text x="0" y="115" fill="#000000" font-size="5px" font-weight="bold" font-family="'Helvetica Neue', Helvetica, Arial-Unicode, Arial, Sans-serif">Created by Max Hancock</text><text x="0" y="120" fill="#000000" font-size="5px" font-weight="bold" font-family="'Helvetica Neue', Helvetica, Arial-Unicode, Arial, Sans-serif">from the Noun Project</text>
</svg>