<svg xmlns="http://www.w3.org/2000/svg" data-name="Layer 1" viewBox="0 0 100 125" x="0px" y="0px"><title>Artboard 36</title><path d="M28.51,86.88,48.74,98.66a2.5,2.5,0,0,0,2.51,0L71.49,86.88A42.12,42.12,0,0,0,92.09,44.4L88.16,16.68a2.5,2.5,0,0,0-2.48-2.15c-14.16,0-24.94-4.08-33.94-12.83a2.5,2.5,0,0,0-3.49,0c-9,8.75-19.78,12.83-33.94,12.83a2.5,2.5,0,0,0-2.48,2.15L7.91,44.4A42.12,42.12,0,0,0,28.51,86.88ZM12.86,45.1l3.63-25.6C30.1,19.12,40.85,15.08,50,6.92c9.15,8.17,19.9,12.2,33.51,12.59l3.63,25.6A37.13,37.13,0,0,1,69,82.56l-19,11-19-11A37.13,37.13,0,0,1,12.86,45.1Z" fill="#ffffff"/><path d="M67.17,49.24h9.31a2.5,2.5,0,0,0,0-5H69L64.19,28.13a6.36,6.36,0,0,0-8.1-4.21l-6.09,2-6.09-2a6.36,6.36,0,0,0-8.1,4.21L31,44.24H23.51a2.5,2.5,0,1,0,0,5H67.17ZM40.59,29.56a1.36,1.36,0,0,1,1.73-.9L49.21,31a2.5,2.5,0,0,0,1.58,0l6.88-2.29a1.36,1.36,0,0,1,1.74.9l4.41,14.68H36.19Z" fill="#bcdbdf"/><path d="M61.11,53.39a9.13,9.13,0,0,0-8.49,5.81,9.4,9.4,0,0,0-5.23,0,9.12,9.12,0,1,0,.43,5.22,4.31,4.31,0,0,1,4.38,0,9.13,9.13,0,1,0,8.92-11ZM38.89,66.64A4.13,4.13,0,1,1,43,62.52,4.13,4.13,0,0,1,38.89,66.64Zm22.22,0a4.13,4.13,0,1,1,4.13-4.13A4.13,4.13,0,0,1,61.11,66.64Z" fill="#bcdbdf"/><text x="0" y="115" fill="#000000" font-size="5px" font-weight="bold" font-family="'Helvetica Neue', Helvetica, Arial-Unicode, Arial, Sans-serif">Created by Gregor Cresnar</text><text x="0" y="120" fill="#000000" font-size="5px" font-weight="bold" font-family="'Helvetica Neue', Helvetica, Arial-Unicode, Arial, Sans-serif">from the Noun Project</text></svg>